HIERARCHY
ROOT Hips
{
  OFFSET 0.000 57.500 0.000
  CHANNELS 6 Xposition Yposition Zposition Zrotation Xrotation Yrotation
  JOINT LeftUpLeg
  {
    OFFSET 8.160 1.068 2.973
    CHANNELS 6 Xposition Yposition Zposition Zrotation Xrotation Yrotation
    JOINT LeftLeg
    {
      OFFSET 0.000 -25.635 0.000
      CHANNELS 6 Xposition Yposition Zposition Zrotation Xrotation Yrotation
      JOINT LeftFoot
      {
        OFFSET 0.000 -32.933 0.000
        CHANNELS 6 Xposition Yposition Zposition Zrotation Xrotation Yrotation
        End Site
        {
          OFFSET 0.000 0.000 8.305
        }
      }
    }
  }
  JOINT RightUpLeg
  {
    OFFSET -8.160 1.068 2.973
    CHANNELS 6 Xposition Yposition Zposition Zrotation Xrotation Yrotation
    JOINT RightLeg
    {
      OFFSET 0.000 -25.635 0.000
      CHANNELS 6 Xposition Yposition Zposition Zrotation Xrotation Yrotation
      JOINT RightFoot
      {
        OFFSET 0.000 -32.933 0.000
        CHANNELS 6 Xposition Yposition Zposition Zrotation Xrotation Yrotation
        End Site
        {
          OFFSET 0.000 0.000 8.305
        }
      }
    }
  }
  JOINT Spine
  {
    OFFSET 0.000 27.277 0.000
    CHANNELS 6 Xposition Yposition Zposition Zrotation Xrotation Yrotation
    JOINT Spine1
    {
      OFFSET 0.000 19.038 0.000
      CHANNELS 6 Xposition Yposition Zposition Zrotation Xrotation Yrotation
      JOINT LeftShoulder
      {
        OFFSET 1.407 -0.119 0.390
        CHANNELS 6 Xposition Yposition Zposition Zrotation Xrotation Yrotation
        JOINT LeftArm
        {
          OFFSET 14.091 0.000 0.000
          CHANNELS 6 Xposition Yposition Zposition Zrotation Xrotation Yrotation
          JOINT LeftForeArm
          {
            OFFSET 17.014 0.000 0.000
            CHANNELS 6 Xposition Yposition Zposition Zrotation Xrotation Yrotation
            JOINT LeftHand
            {
              OFFSET 23.300 0.000 0.000
              CHANNELS 6 Xposition Yposition Zposition Zrotation Xrotation Yrotation
              JOINT LeftHandThumb1
              {
                OFFSET 4.877 -1.044 3.608
                CHANNELS 6 Xposition Yposition Zposition Zrotation Xrotation Yrotation
                JOINT LeftHandThumb2
                {
                  OFFSET 2.665 -0.000 -0.000
                  CHANNELS 6 Xposition Yposition Zposition Zrotation Xrotation Yrotation
                  JOINT LeftHandThumb3
                  {
                    OFFSET 2.543 -0.000 -0.000
                    CHANNELS 6 Xposition Yposition Zposition Zrotation Xrotation Yrotation
                    End Site
                    {
                      OFFSET 2.667 0.000 0.000
                    }
                  }
                }
              }
              JOINT LeftHandIndex1
              {
                OFFSET 9.232 -0.301 2.144
                CHANNELS 6 Xposition Yposition Zposition Zrotation Xrotation Yrotation
                JOINT LeftHandIndex2
                {
                  OFFSET 4.225 0.000 0.000
                  CHANNELS 6 Xposition Yposition Zposition Zrotation Xrotation Yrotation
                  JOINT LeftHandIndex3
                  {
                    OFFSET 2.654 -0.000 -0.000
                    CHANNELS 6 Xposition Yposition Zposition Zrotation Xrotation Yrotation
                    End Site
                    {
                      OFFSET 1.958 0.000 0.000
                    }
                  }
                }
              }
              JOINT LeftHandMiddle1
              {
                OFFSET 8.920 0.000 0.000
                CHANNELS 6 Xposition Yposition Zposition Zrotation Xrotation Yrotation
                JOINT LeftHandMiddle2
                {
                  OFFSET 4.863 0.000 0.000
                  CHANNELS 6 Xposition Yposition Zposition Zrotation Xrotation Yrotation
                  JOINT LeftHandMiddle3
                  {
                    OFFSET 2.765 -0.000 -0.000
                    CHANNELS 6 Xposition Yposition Zposition Zrotation Xrotation Yrotation
                    End Site
                    {
                      OFFSET 2.006 0.000 -0.000
                    }
                  }
                }
              }
              JOINT LeftHandRing1
              {
                OFFSET 8.689 -0.126 -2.087
                CHANNELS 6 Xposition Yposition Zposition Zrotation Xrotation Yrotation
                JOINT LeftHandRing2
                {
                  OFFSET 4.538 -0.000 0.000
                  CHANNELS 6 Xposition Yposition Zposition Zrotation Xrotation Yrotation
                  JOINT LeftHandRing3
                  {
                    OFFSET 2.305 -0.000 -0.000
                    CHANNELS 6 Xposition Yposition Zposition Zrotation Xrotation Yrotation
                    End Site
                    {
                      OFFSET 1.923 0.000 -0.000
                    }
                  }
                }
              }
              JOINT LeftHandPinky1
              {
                OFFSET 8.391 -0.817 -3.758
                CHANNELS 6 Xposition Yposition Zposition Zrotation Xrotation Yrotation
                JOINT LeftHandPinky2
                {
                  OFFSET 3.044 0.000 0.000
                  CHANNELS 6 Xposition Yposition Zposition Zrotation Xrotation Yrotation
                  JOINT LeftHandPinky3
                  {
                    OFFSET 1.975 -0.000 0.000
                    CHANNELS 6 Xposition Yposition Zposition Zrotation Xrotation Yrotation
                    End Site
                    {
                      OFFSET 1.667 0.000 -0.000
                    }
                  }
                }
              }
            }
          }
        }
      }
      JOINT RightShoulder
      {
        OFFSET -1.407 -0.119 0.390
        CHANNELS 6 Xposition Yposition Zposition Zrotation Xrotation Yrotation
        JOINT RightArm
        {
          OFFSET -14.091 0.000 0.000
          CHANNELS 6 Xposition Yposition Zposition Zrotation Xrotation Yrotation
          JOINT RightForeArm
          {
            OFFSET -17.014 0.000 0.000
            CHANNELS 6 Xposition Yposition Zposition Zrotation Xrotation Yrotation
            JOINT RightHand
            {
              OFFSET -23.300 0.000 0.000
              CHANNELS 6 Xposition Yposition Zposition Zrotation Xrotation Yrotation
              JOINT RightHandThumb1
              {
                OFFSET -4.877 -1.044 3.608
                CHANNELS 6 Xposition Yposition Zposition Zrotation Xrotation Yrotation
                JOINT RightHandThumb2
                {
                  OFFSET -2.665 -0.000 0.000
                  CHANNELS 6 Xposition Yposition Zposition Zrotation Xrotation Yrotation
                  JOINT RightHandThumb3
                  {
                    OFFSET -2.543 0.000 0.000
                    CHANNELS 6 Xposition Yposition Zposition Zrotation Xrotation Yrotation
                    End Site
                    {
                      OFFSET -2.667 0.000 0.000
                    }
                  }
                }
              }
              JOINT RightHandIndex1
              {
                OFFSET -9.232 -0.301 2.144
                CHANNELS 6 Xposition Yposition Zposition Zrotation Xrotation Yrotation
                JOINT RightHandIndex2
                {
                  OFFSET -4.225 0.000 0.000
                  CHANNELS 6 Xposition Yposition Zposition Zrotation Xrotation Yrotation
                  JOINT RightHandIndex3
                  {
                    OFFSET -2.654 0.000 -0.000
                    CHANNELS 6 Xposition Yposition Zposition Zrotation Xrotation Yrotation
                    End Site
                    {
                      OFFSET -1.958 -0.000 0.000
                    }
                  }
                }
              }
              JOINT RightHandMiddle1
              {
                OFFSET -8.920 0.000 0.000
                CHANNELS 6 Xposition Yposition Zposition Zrotation Xrotation Yrotation
                JOINT RightHandMiddle2
                {
                  OFFSET -4.863 0.000 -0.000
                  CHANNELS 6 Xposition Yposition Zposition Zrotation Xrotation Yrotation
                  JOINT RightHandMiddle3
                  {
                    OFFSET -2.765 0.000 0.000
                    CHANNELS 6 Xposition Yposition Zposition Zrotation Xrotation Yrotation
                    End Site
                    {
                      OFFSET -2.006 -0.000 0.000
                    }
                  }
                }
              }
              JOINT RightHandRing1
              {
                OFFSET -8.689 -0.126 -2.087
                CHANNELS 6 Xposition Yposition Zposition Zrotation Xrotation Yrotation
                JOINT RightHandRing2
                {
                  OFFSET -4.538 0.000 0.000
                  CHANNELS 6 Xposition Yposition Zposition Zrotation Xrotation Yrotation
                  JOINT RightHandRing3
                  {
                    OFFSET -2.305 0.000 0.000
                    CHANNELS 6 Xposition Yposition Zposition Zrotation Xrotation Yrotation
                    End Site
                    {
                      OFFSET -1.923 -0.000 0.000
                    }
                  }
                }
              }
              JOINT RightHandPinky1
              {
                OFFSET -8.391 -0.817 -3.758
                CHANNELS 6 Xposition Yposition Zposition Zrotation Xrotation Yrotation
                JOINT RightHandPinky2
                {
                  OFFSET -3.044 0.000 0.000
                  CHANNELS 6 Xposition Yposition Zposition Zrotation Xrotation Yrotation
                  JOINT RightHandPinky3
                  {
                    OFFSET -1.975 0.000 0.000
                    CHANNELS 6 Xposition Yposition Zposition Zrotation Xrotation Yrotation
                    End Site
                    {
                      OFFSET -1.667 -0.000 -0.000
                    }
                  }
                }
              }
            }
          }
        }
      }
      JOINT Neck
      {
        OFFSET 0.000 0.640 0.000
        CHANNELS 6 Xposition Yposition Zposition Zrotation Xrotation Yrotation
        JOINT Head
        {
          OFFSET 0.000 5.920 0.000
          CHANNELS 6 Xposition Yposition Zposition Zrotation Xrotation Yrotation
          End Site
          {
            OFFSET 0.000 12.635 0.000
          }
        }
      }
    }
  }
}
MOTION
Frames:	4
Frame Time:	0.033333
-61.16224 68.08608 -204.12332 9.56792 13.45743 10.89399 8.73337 1.27044 2.83001 9.34305 -38.88230 16.63485 0.40488 -26.20510 -0.28123 -21.29870 50.42470 -5.12684 -0.31441 -32.48453 -0.20707 0.37966 -1.24785 1.52414 -7.64011 1.30410 2.85587 -2.79048 -26.38861 9.56017 0.17955 -25.01585 -0.07199 3.45185 28.75134 -12.25818 -0.00907 -31.80730 -0.02672 0.19203 3.50097 -3.50444 0.06088 27.78791 0.02904 -1.40955 0.24635 -3.38243 0.04440 20.71183 0.00406 0.39295 2.50469 -3.36763 1.52564 -0.36535 0.44959 -12.00408 3.52465 -15.88754 14.79430 -0.02990 -0.00518 -48.40456 -3.49250 -9.26870 17.72994 -0.09355 -0.15599 170.79454 -3.84430 -32.52053 20.45521 -0.19759 0.13551 9.61053 -25.52013 55.65845 4.87700 -1.04399 3.60799 -41.57594 -8.45725 -7.72879 2.66501 -0.00001 -0.00001 -0.00000 0.00000 5.00000 2.54297 -0.00001 -0.00001 0.00001 0.00000 60.00000 9.23200 -0.30099 2.14399 -80.00000 0.00000 0.00000 4.22501 0.00001 0.00001 -90.00000 -0.00000 -0.00000 2.65402 -0.00001 -0.00001 -70.00000 -0.00000 0.00006 8.91999 0.00000 0.00000 -80.00000 0.00000 0.00000 4.86298 0.00001 0.00000 -90.00000 -0.00000 -0.00000 2.76501 -0.00001 -0.00001 -70.00000 -0.00000 0.00006 8.68901 -0.12599 -2.08701 -80.00000 0.00000 0.00000 4.53800 -0.00001 0.00001 -90.00000 -0.00000 -0.00000 2.30500 -0.00001 -0.00004 -70.00000 -0.00000 0.00006 8.39099 -0.81698 -3.75801 -80.00000 0.00000 0.00000 3.04401 0.00001 0.00000 -90.00000 -0.00000 -0.00000 1.97500 -0.00001 0.00000 -70.00000 -0.00000 0.00006 -1.38755 -0.33068 0.43166 10.87206 3.47106 17.50429 -13.45146 -0.04170 -0.03351 79.99884 3.03013 55.48072 -20.18038 -0.04035 -0.08381 111.90876 14.49444 43.60097 -19.56084 0.03014 0.05554 22.71773 30.58085 -8.74300 -4.87701 -1.04400 3.60801 37.43813 21.26626 8.20656 -2.66500 -0.00001 0.00000 0.00000 -0.00000 -5.00000 -2.54300 0.00000 0.00001 -0.00000 0.00000 -60.00000 -9.23201 -0.30100 2.14400 80.00000 0.00000 0.00000 -4.22500 0.00000 0.00000 90.00000 -0.00001 0.00001 -2.65402 0.00001 -0.00001 70.00000 0.00000 0.00001 -8.92001 0.00001 0.00000 80.00000 0.00000 0.00000 -4.86299 0.00000 -0.00001 90.00000 -0.00001 0.00001 -2.76500 0.00001 0.00001 70.00000 0.00000 0.00001 -8.68901 -0.12598 -2.08700 80.00000 0.00000 0.00000 -4.53801 0.00000 0.00000 90.00000 -0.00001 0.00001 -2.30500 0.00001 0.00001 70.00000 0.00000 0.00001 -8.39101 -0.81698 -3.75800 80.00000 0.00000 0.00000 -3.04402 0.00000 0.00001 90.00000 -0.00001 0.00001 -1.97499 0.00001 0.00001 70.00000 0.00000 0.00001 0.00000 0.67212 0.00002 -0.00001 -0.00005 0.00000 0.01565 6.03071 0.00124 3.97912 -11.72478 22.53026 
-60.77886 68.47718 -205.06540 10.43336 14.63299 10.55905 8.79972 1.42359 2.80649 21.75860 -43.04799 26.54795 0.59474 -25.02669 -0.12052 -39.88383 62.63036 3.72072 -0.18263 -32.49543 -0.31012 0.55213 -6.47841 2.61373 -7.67461 1.21134 2.83366 -3.56921 -28.62000 10.42773 0.14704 -25.37732 -0.03028 3.56417 29.79445 -12.73403 -0.01300 -31.54122 -0.01964 0.29028 4.20057 -4.02285 0.05272 27.53624 0.01647 -1.49373 0.12656 -3.52067 0.04155 20.54173 -0.00510 0.47003 2.61998 -3.50450 1.51796 -0.34982 0.47013 -11.21745 3.47024 -16.67481 14.76623 -0.03074 0.00772 -48.31816 -4.89870 -10.53725 17.25021 -0.10135 -0.12113 161.37503 -6.29101 -34.31808 20.50985 -0.12352 0.10247 27.58791 -14.76328 57.46596 4.87700 -1.04399 3.60799 -41.57594 -8.45725 -7.72879 2.66501 -0.00001 -0.00001 -0.00000 0.00000 5.00000 2.54297 -0.00001 -0.00001 0.00001 0.00000 60.00000 9.23200 -0.30099 2.14399 -80.00000 0.00000 0.00000 4.22501 0.00001 0.00001 -90.00000 -0.00000 -0.00000 2.65402 -0.00001 -0.00001 -70.00000 -0.00000 0.00006 8.91999 0.00000 0.00000 -80.00000 0.00000 0.00000 4.86298 0.00001 0.00000 -90.00000 -0.00000 -0.00000 2.76501 -0.00001 -0.00001 -70.00000 -0.00000 0.00006 8.68901 -0.12599 -2.08701 -80.00000 0.00000 0.00000 4.53800 -0.00001 0.00001 -90.00000 -0.00000 -0.00000 2.30500 -0.00001 -0.00004 -70.00000 -0.00000 0.00006 8.39099 -0.81698 -3.75801 -80.00000 0.00000 0.00000 3.04401 0.00001 0.00000 -90.00000 -0.00000 -0.00000 1.97500 -0.00001 0.00000 -70.00000 -0.00000 0.00006 -1.37659 -0.31803 0.45546 10.51736 3.54157 18.52025 -13.33531 -0.04063 -0.03259 79.00411 3.98724 55.84288 -20.06179 -0.02675 -0.07450 110.07128 13.58973 43.73168 -19.82998 0.02852 0.03195 24.08026 30.06470 -4.07015 -4.87701 -1.04400 3.60801 37.43813 21.26626 8.20656 -2.66500 -0.00001 0.00000 0.00000 -0.00000 -5.00000 -2.54300 0.00000 0.00001 -0.00000 0.00000 -60.00000 -9.23201 -0.30100 2.14400 80.00000 0.00000 0.00000 -4.22500 0.00000 0.00000 90.00000 -0.00001 0.00001 -2.65402 0.00001 -0.00001 70.00000 0.00000 0.00001 -8.92001 0.00001 0.00000 80.00000 0.00000 0.00000 -4.86299 0.00000 -0.00001 90.00000 -0.00001 0.00001 -2.76500 0.00001 0.00001 70.00000 0.00000 0.00001 -8.68901 -0.12598 -2.08700 80.00000 0.00000 0.00000 -4.53801 0.00000 0.00000 90.00000 -0.00001 0.00001 -2.30500 0.00001 0.00001 70.00000 0.00000 0.00001 -8.39101 -0.81698 -3.75800 80.00000 0.00000 0.00000 -3.04402 0.00000 0.00001 90.00000 -0.00001 0.00001 -1.97499 0.00001 0.00001 70.00000 0.00000 0.00001 0.00000 0.67144 0.00002 -0.00001 -0.00005 0.00000 0.00571 5.97831 0.00204 4.83207 -12.27385 23.64011 
-60.35012 68.77280 -205.99002 11.45136 15.85961 10.38716 8.87692 1.60981 2.78800 32.53453 -45.30590 35.30909 0.76270 -24.73557 0.11960 -58.56011 72.63997 17.25559 -0.12048 -32.47293 -0.47890 0.30073 -11.83337 1.49155 -7.71688 1.07809 2.80789 -3.96539 -30.39738 11.33222 0.17905 -26.93568 0.03262 2.19215 31.88458 -13.14764 0.02116 -30.85713 0.01431 0.29971 3.91011 -4.11917 0.04384 27.41011 0.01672 -1.34002 0.07691 -3.88287 0.03530 20.36868 -0.01413 0.83932 3.09172 -3.90943 1.48167 -0.35525 0.47690 -11.70717 3.78812 -17.32267 14.42911 -0.05148 0.01759 -45.83129 -7.88567 -11.32094 17.00548 -0.10542 -0.10400 169.06583 -9.42401 -35.33910 20.53387 -0.06808 0.07076 35.34908 -8.92230 50.55535 4.87700 -1.04399 3.60799 -41.57594 -8.45725 -7.72879 2.66501 -0.00001 -0.00001 -0.00000 0.00000 5.00000 2.54297 -0.00001 -0.00001 0.00001 0.00000 60.00000 9.23200 -0.30099 2.14399 -80.00000 0.00000 0.00000 4.22501 0.00001 0.00001 -90.00000 -0.00000 -0.00000 2.65402 -0.00001 -0.00001 -70.00000 -0.00000 0.00006 8.91999 0.00000 0.00000 -80.00000 0.00000 0.00000 4.86298 0.00001 0.00000 -90.00000 -0.00000 -0.00000 2.76501 -0.00001 -0.00001 -70.00000 -0.00000 0.00006 8.68901 -0.12599 -2.08701 -80.00000 0.00000 0.00000 4.53800 -0.00001 0.00001 -90.00000 -0.00000 -0.00000 2.30500 -0.00001 -0.00004 -70.00000 -0.00000 0.00006 8.39099 -0.81698 -3.75801 -80.00000 0.00000 0.00000 3.04401 0.00001 0.00000 -90.00000 -0.00000 -0.00000 1.97500 -0.00001 0.00000 -70.00000 -0.00000 0.00006 -1.38900 -0.30038 0.46693 9.94459 3.40770 18.74529 -13.38418 -0.03911 -0.03143 76.58324 5.40615 54.50234 -20.27792 0.01196 -0.13271 107.67074 14.89221 45.40331 -19.27367 -0.03836 0.01021 30.68937 21.96946 -8.72017 -4.87701 -1.04400 3.60801 37.43813 21.26626 8.20656 -2.66500 -0.00001 0.00000 0.00000 -0.00000 -5.00000 -2.54300 0.00000 0.00001 -0.00000 0.00000 -60.00000 -9.23201 -0.30100 2.14400 80.00000 0.00000 0.00000 -4.22500 0.00000 0.00000 90.00000 -0.00001 0.00001 -2.65402 0.00001 -0.00001 70.00000 0.00000 0.00001 -8.92001 0.00001 0.00000 80.00000 0.00000 0.00000 -4.86299 0.00000 -0.00001 90.00000 -0.00001 0.00001 -2.76500 0.00001 0.00001 70.00000 0.00000 0.00001 -8.68901 -0.12598 -2.08700 80.00000 0.00000 0.00000 -4.53801 0.00000 0.00000 90.00000 -0.00001 0.00001 -2.30500 0.00001 0.00001 70.00000 0.00000 0.00001 -8.39101 -0.81698 -3.75800 80.00000 0.00000 0.00000 -3.04402 0.00000 0.00001 90.00000 -0.00001 0.00001 -1.97499 0.00001 0.00001 70.00000 0.00000 0.00001 0.00000 0.67125 0.00002 -0.00001 -0.00005 0.00000 -0.00126 5.95179 0.00279 4.10263 -13.91492 24.87604 
-59.79842 69.12534 -206.82698 12.82000 17.07013 10.23022 8.94639 1.69993 2.78517 44.74878 -45.59028 44.27123 0.93257 -24.76429 0.45586 -85.63473 77.98193 39.92793 0.06044 -32.65646 -0.70323 -0.23787 -14.72392 -0.75365 -7.78739 1.04529 2.81068 -5.31636 -32.24938 11.46819 0.13630 -27.16679 0.03445 1.36680 32.92632 -13.17247 -0.02062 -31.88111 0.01512 0.35195 4.62438 -4.19111 0.03942 27.29812 0.01939 -1.14755 0.01998 -4.22852 0.02874 20.25721 -0.01539 1.13608 3.47267 -4.31047 1.43865 -0.37026 0.48495 -12.62682 4.33174 -18.19398 14.03609 -0.06363 0.02534 -43.39879 -10.50138 -12.49066 16.76639 -0.10249 -0.09080 163.80460 -11.70059 -36.78042 20.55577 -0.03890 0.04923 44.93307 -6.93212 45.17570 4.87700 -1.04399 3.60799 -41.57594 -8.45725 -7.72879 2.66501 -0.00001 -0.00001 -0.00000 0.00000 5.00000 2.54297 -0.00001 -0.00001 0.00001 0.00000 60.00000 9.23200 -0.30099 2.14399 -80.00000 0.00000 0.00000 4.22501 0.00001 0.00001 -90.00000 -0.00000 -0.00000 2.65402 -0.00001 -0.00001 -70.00000 -0.00000 0.00006 8.91999 0.00000 0.00000 -80.00000 0.00000 0.00000 4.86298 0.00001 0.00000 -90.00000 -0.00000 -0.00000 2.76501 -0.00001 -0.00001 -70.00000 -0.00000 0.00006 8.68901 -0.12599 -2.08701 -80.00000 0.00000 0.00000 4.53800 -0.00001 0.00001 -90.00000 -0.00000 -0.00000 2.30500 -0.00001 -0.00004 -70.00000 -0.00000 0.00006 8.39099 -0.81698 -3.75801 -80.00000 0.00000 0.00000 3.04401 0.00001 0.00000 -90.00000 -0.00000 -0.00000 1.97500 -0.00001 0.00000 -70.00000 -0.00000 0.00006 -1.39719 -0.28154 0.48071 9.39858 3.27770 19.10225 -13.41612 -0.03752 -0.03012 74.55180 6.61722 53.70865 -20.47361 0.01639 -0.14517 105.37858 15.80539 46.55236 -18.76519 -0.06429 0.00347 34.94368 16.46287 -11.02658 -4.87701 -1.04400 3.60801 37.43813 21.26626 8.20656 -2.66500 -0.00001 0.00000 0.00000 -0.00000 -5.00000 -2.54300 0.00000 0.00001 -0.00000 0.00000 -60.00000 -9.23201 -0.30100 2.14400 80.00000 0.00000 0.00000 -4.22500 0.00000 0.00000 90.00000 -0.00001 0.00001 -2.65402 0.00001 -0.00001 70.00000 0.00000 0.00001 -8.92001 0.00001 0.00000 80.00000 0.00000 0.00000 -4.86299 0.00000 -0.00001 90.00000 -0.00001 0.00001 -2.76500 0.00001 0.00001 70.00000 0.00000 0.00001 -8.68901 -0.12598 -2.08700 80.00000 0.00000 0.00000 -4.53801 0.00000 0.00000 90.00000 -0.00001 0.00001 -2.30500 0.00001 0.00001 70.00000 0.00000 0.00001 -8.39101 -0.81698 -3.75800 80.00000 0.00000 0.00000 -3.04402 0.00000 0.00001 90.00000 -0.00001 0.00001 -1.97499 0.00001 0.00001 70.00000 0.00000 0.00001 0.00000 0.67139 0.00002 -0.00001 -0.00005 0.00000 -0.00447 5.95598 0.00352 2.32505 -15.49945 25.59631 
